<svg width="46" height="50" viewBox="0 0 46 50" fill="none" xmlns="http://www.w3.org/2000/svg">
<g filter="url(#filter0_d)">
<mask id="mask0" mask-type="alpha" maskUnits="userSpaceOnUse" x="4" y="6" width="38" height="36">
<path d="M23 42C33.0415 42 41.1818 33.9411 41.1818 24C41.1818 14.0589 33.0415 6 23 6C12.9585 6 4.81818 14.0589 4.81818 24C4.81818 33.9411 12.9585 42 23 42Z" fill="white"/>
</mask>
<g mask="url(#mask0)">
<path d="M23 42C33.0415 42 41.1818 33.9411 41.1818 24C41.1818 14.0589 33.0415 6 23 6C12.9585 6 4.81818 14.0589 4.81818 24C4.81818 33.9411 12.9585 42 23 42Z" fill="#E6E6E6"/>
<path d="M41.1818 6H4.81818V42H41.1818V6Z" fill="#65C9FF"/>
</g>
<mask id="mask1" mask-type="alpha" maskUnits="userSpaceOnUse" x="3" y="0" width="40" height="42">
<path d="M4.81818 24C4.81818 33.9411 12.9585 42 23 42C33.0415 42 41.1818 33.9411 41.1818 24H43V0H3V24H4.81818Z" fill="white"/>
</mask>
<g mask="url(#mask1)">
<mask id="mask2" mask-type="alpha" maskUnits="userSpaceOnUse" x="7" y="5" width="32" height="37">
<path d="M26.6364 27.0916V29.85H27.2424C33.2673 29.85 38.1515 34.6853 38.1515 40.65V42H7.84848V40.65C7.84848 34.6853 12.7327 29.85 18.7576 29.85H19.3636V27.0916C16.7519 25.8634 14.8746 23.3531 14.5614 20.3822C13.6788 20.2587 13 19.5078 13 18.6V16.5C13 15.6081 13.6552 14.8677 14.5152 14.7249V13.8C14.5152 9.16081 18.3139 5.4 23 5.4C27.6861 5.4 31.4848 9.16081 31.4848 13.8V14.7249C32.3448 14.8677 33 15.6081 33 16.5V18.6C33 19.5078 32.3212 20.2587 31.4386 20.3822C31.1254 23.3531 29.2481 25.8634 26.6364 27.0916Z" fill="white"/>
</mask>
<g mask="url(#mask2)">
<path d="M26.6364 27.0916V29.85H27.2424C33.2673 29.85 38.1515 34.6853 38.1515 40.65V42H7.84848V40.65C7.84848 34.6853 12.7327 29.85 18.7576 29.85H19.3636V27.0916C16.7519 25.8634 14.8746 23.3531 14.5614 20.3822C13.6788 20.2587 13 19.5078 13 18.6V16.5C13 15.6081 13.6552 14.8677 14.5152 14.7249V13.8C14.5152 9.16081 18.3139 5.4 23 5.4C27.6861 5.4 31.4848 9.16081 31.4848 13.8V14.7249C32.3448 14.8677 33 15.6081 33 16.5V18.6C33 19.5078 32.3212 20.2587 31.4386 20.3822C31.1254 23.3531 29.2481 25.8634 26.6364 27.0916Z" fill="#D0C6AC"/>
<path d="M43 5.4H3V42H43V5.4Z" fill="#EDB98A"/>
<path fill-rule="evenodd" clip-rule="evenodd" d="M31.4848 17.25V20.7C31.4848 25.3392 27.6861 29.1 23 29.1C18.3139 29.1 14.5152 25.3392 14.5152 20.7V17.25V19.5C14.5152 24.1392 18.3139 27.9 23 27.9C27.6861 27.9 31.4848 24.1392 31.4848 19.5V17.25Z" fill="black" fill-opacity="0.1"/>
</g>
<mask id="mask3" mask-type="alpha" maskUnits="userSpaceOnUse" x="7" y="27" width="32" height="15">
<path fill-rule="evenodd" clip-rule="evenodd" d="M19.3636 27.4606C16.6487 27.7614 14.5576 28.5828 14.5158 30.6967C10.5979 32.3352 7.84848 36.1747 7.84848 40.6499V42H38.1515V40.6499C38.1515 36.1747 35.4021 32.3352 31.4842 30.6968C31.4424 28.5828 29.3513 27.7614 26.6364 27.4606V30.3C26.6364 32.2882 25.0083 33.9 23 33.9C20.9917 33.9 19.3636 32.2882 19.3636 30.3V27.4606Z" fill="white"/>
</mask>
<g mask="url(#mask3)">
<path fill-rule="evenodd" clip-rule="evenodd" d="M19.3636 27.4606C16.6487 27.7614 14.5576 28.5828 14.5158 30.6967C10.5979 32.3352 7.84848 36.1747 7.84848 40.6499V42H38.1515V40.6499C38.1515 36.1747 35.4021 32.3352 31.4842 30.6968C31.4424 28.5828 29.3513 27.7614 26.6364 27.4606V30.3C26.6364 32.2882 25.0083 33.9 23 33.9C20.9917 33.9 19.3636 32.2882 19.3636 30.3V27.4606Z" fill="#B7C1DB"/>
<path d="M43 25.5H3V42H43V25.5Z" fill="#E6E6E6"/>
<path fill-rule="evenodd" clip-rule="evenodd" d="M18.4545 34.7609V42H17.3939V34.2225C17.7278 34.419 18.0828 34.5991 18.4545 34.7609ZM28.6061 34.2225V40.275C28.6061 40.565 28.3686 40.8 28.0758 40.8C27.7829 40.8 27.5455 40.565 27.5455 40.275V34.7609C27.9172 34.5991 28.2722 34.419 28.6061 34.2225Z" fill="#F4F4F4"/>
<path fill-rule="evenodd" clip-rule="evenodd" d="M16.7818 27.4086C14.5014 27.8357 12.9242 28.6864 12.9242 30.3462C12.9242 33.303 17.9299 35.7 23 35.7C28.07 35.7 33.0758 33.303 33.0758 30.3462C33.0758 28.6864 31.4986 27.8357 29.2182 27.4086C30.5947 27.9112 31.4848 28.7559 31.4848 30.1615C31.4848 33.2204 27.2695 35.7 23 35.7C18.7305 35.7 14.5151 33.2204 14.5151 30.1615C14.5151 28.7559 15.4053 27.9112 16.7818 27.4086Z" fill="black" fill-opacity="0.16"/>
</g>
<path fill-rule="evenodd" clip-rule="evenodd" d="M20.8788 22.35C20.8788 23.5098 21.8285 24.45 23 24.45C24.1715 24.45 25.1212 23.5098 25.1212 22.35" fill="black" fill-opacity="0.7"/>
<path fill-rule="evenodd" clip-rule="evenodd" d="M21.1818 19.5C21.1818 20.1627 21.9958 20.7 23 20.7C24.0042 20.7 24.8182 20.1627 24.8182 19.5" fill="black" fill-opacity="0.16"/>
<path d="M19.0606 17.7C19.5627 17.7 19.9697 17.2971 19.9697 16.8C19.9697 16.3029 19.5627 15.9 19.0606 15.9C18.5585 15.9 18.1515 16.3029 18.1515 16.8C18.1515 17.2971 18.5585 17.7 19.0606 17.7Z" fill="black" fill-opacity="0.6"/>
<path d="M26.9394 17.7C27.4415 17.7 27.8485 17.2971 27.8485 16.8C27.8485 16.3029 27.4415 15.9 26.9394 15.9C26.4373 15.9 26.0303 16.3029 26.0303 16.8C26.0303 17.2971 26.4373 17.7 26.9394 17.7Z" fill="black" fill-opacity="0.6"/>
<path d="M16.8834 14.8738C17.4765 14.0475 19.1027 13.5841 20.5035 13.9247C20.666 13.9642 20.8301 13.8658 20.87 13.7049C20.9099 13.544 20.8105 13.3815 20.648 13.342C19.0213 12.9465 17.1382 13.4831 16.3894 14.5262C16.2924 14.6613 16.3244 14.8486 16.4608 14.9445C16.5972 15.0405 16.7864 15.0088 16.8834 14.8738Z" fill="black" fill-opacity="0.6"/>
<path d="M29.1167 14.8738C28.5235 14.0475 26.8973 13.5841 25.4966 13.9247C25.334 13.9642 25.1699 13.8658 25.13 13.7049C25.0901 13.544 25.1895 13.3815 25.352 13.342C26.9788 12.9465 28.8618 13.4831 29.6107 14.5262C29.7076 14.6613 29.6756 14.8486 29.5392 14.9445C29.4028 15.0405 29.2136 15.0088 29.1167 14.8738Z" fill="black" fill-opacity="0.6"/>
<mask id="mask4" mask-type="alpha" maskUnits="userSpaceOnUse" x="3" y="0" width="40" height="42">
<path d="M43 0H3V42H43V0Z" fill="white"/>
</mask>
<g mask="url(#mask4)">
<mask id="mask5" mask-type="alpha" maskUnits="userSpaceOnUse" x="12" y="0" width="22" height="11">
<path fill-rule="evenodd" clip-rule="evenodd" d="M32.3423 6.35349C32.7666 7.40365 33 8.54984 33 9.75V10.95H13V9.75C13 8.54623 13.2348 7.39675 13.6615 6.34401C12.6913 4.32457 12.5029 2.66592 13.0964 1.36804C14.2335 1.02653 15.5506 1.29747 17.0478 2.18085C18.5282 1.18316 20.3165 0.599998 22.2424 0.599998H23.7576C25.6852 0.599998 27.4749 1.18419 28.9561 2.18349C30.4551 1.29801 31.7738 1.02619 32.912 1.36804C33.5064 2.66795 33.3165 4.32976 32.3423 6.35349Z" fill="white"/>
</mask>
<g mask="url(#mask5)">
<path fill-rule="evenodd" clip-rule="evenodd" d="M32.3423 6.35349C32.7666 7.40365 33 8.54984 33 9.75V10.95H13V9.75C13 8.54623 13.2348 7.39675 13.6615 6.34401C12.6913 4.32457 12.5029 2.66592 13.0964 1.36804C14.2335 1.02653 15.5506 1.29747 17.0478 2.18085C18.5282 1.18316 20.3165 0.599998 22.2424 0.599998H23.7576C25.6852 0.599998 27.4749 1.18419 28.9561 2.18349C30.4551 1.29801 31.7738 1.02619 32.912 1.36804C33.5064 2.66795 33.3165 4.32976 32.3423 6.35349Z" fill="#D8D8D8"/>
<path d="M52.697 0.599998H12.697V42.6H52.697V0.599998Z" fill="#929598"/>
</g>
<mask id="mask6" mask-type="alpha" maskUnits="userSpaceOnUse" x="12" y="1" width="22" height="6">
<path fill-rule="evenodd" clip-rule="evenodd" d="M17.0478 2.18084C15.5392 3.19756 14.3503 4.64477 13.6615 6.344C12.6913 4.32457 12.5029 2.66591 13.0964 1.36804C14.2335 1.02653 15.5506 1.29746 17.0478 2.18084L17.0478 2.18084ZM32.3423 6.35349C31.6547 4.65163 30.4657 3.20196 28.9561 2.18349C30.4551 1.29801 31.7738 1.02619 32.912 1.36804C33.5064 2.66794 33.3165 4.32976 32.3423 6.35349Z" fill="white"/>
</mask>
<g mask="url(#mask6)">
<path fill-rule="evenodd" clip-rule="evenodd" d="M17.0478 2.18084C15.5392 3.19756 14.3503 4.64477 13.6615 6.344C12.6913 4.32457 12.5029 2.66591 13.0964 1.36804C14.2335 1.02653 15.5506 1.29746 17.0478 2.18084L17.0478 2.18084ZM32.3423 6.35349C31.6547 4.65163 30.4657 3.20196 28.9561 2.18349C30.4551 1.29801 31.7738 1.02619 32.912 1.36804C33.5064 2.66794 33.3165 4.32976 32.3423 6.35349Z" fill="black" fill-opacity="0.24"/>
</g>
<mask id="mask7" mask-type="alpha" maskUnits="userSpaceOnUse" x="13" y="2" width="20" height="4">
<path fill-rule="evenodd" clip-rule="evenodd" d="M16.0093 2.99387C15.3316 3.60698 14.7465 4.3187 14.2771 5.10608C13.8339 3.88983 13.758 3.04821 14.0496 2.58122C14.4512 2.40924 15.1045 2.54679 16.0093 2.99387ZM31.6898 5.05106C31.2239 4.28198 30.6472 3.58626 29.9815 2.98556C30.8607 2.55781 31.4974 2.42834 31.8918 2.59717C32.1776 3.05502 32.1103 3.87299 31.6898 5.05106Z" fill="white"/>
</mask>
<g mask="url(#mask7)">
<path fill-rule="evenodd" clip-rule="evenodd" d="M16.0093 2.99387C15.3316 3.60698 14.7465 4.3187 14.2771 5.10608C13.8339 3.88983 13.758 3.04821 14.0496 2.58122C14.4512 2.40924 15.1045 2.54679 16.0093 2.99387ZM31.6898 5.05106C31.2239 4.28198 30.6472 3.58626 29.9815 2.98556C30.8607 2.55781 31.4974 2.42834 31.8918 2.59717C32.1776 3.05502 32.1103 3.87299 31.6898 5.05106Z" fill="white" fill-opacity="0.3"/>
</g>
<path fill-rule="evenodd" clip-rule="evenodd" d="M13.0431 9.21771C15.459 7.47257 18.7817 6.6 23.0111 6.6C27.2402 6.6 30.5563 7.47248 32.9593 9.21744V9.21744C33.2706 9.4435 33.4545 9.80285 33.4545 10.1851V14.7555C33.4545 15.0868 33.1832 15.3555 32.8485 15.3555C32.734 15.3555 32.6219 15.3234 32.5251 15.2629C30.0035 13.6876 26.8691 12.9 23.1219 12.9C19.3459 12.9 16.1273 13.6997 13.466 15.2992C13.1799 15.4711 12.8071 15.3809 12.6334 15.0976C12.5759 15.0038 12.5455 14.8961 12.5455 14.7863L12.5455 10.1871C12.5455 9.80383 12.7304 9.44362 13.0431 9.21771Z" fill="black"/>
<path fill-rule="evenodd" clip-rule="evenodd" d="M13.0431 9.21771C15.459 7.47257 18.7817 6.6 23.0111 6.6C27.2402 6.6 30.5563 7.47248 32.9593 9.21744V9.21744C33.2706 9.4435 33.4545 9.80285 33.4545 10.1851V14.7555C33.4545 15.0868 33.1832 15.3555 32.8485 15.3555C32.734 15.3555 32.6219 15.3234 32.5251 15.2629C30.0035 13.6876 26.8691 12.9 23.1219 12.9C19.3459 12.9 16.1273 13.6997 13.466 15.2992C13.1799 15.4711 12.8071 15.3809 12.6334 15.0976C12.5759 15.0038 12.5455 14.8961 12.5455 14.7863L12.5455 10.1871C12.5455 9.80383 12.7304 9.44362 13.0431 9.21771Z" fill="#F4F4F4"/>
<g filter="url(#filter1_d)">
<path fill-rule="evenodd" clip-rule="evenodd" d="M24.434 15.2091C25.0273 14.0188 26.2655 13.2 27.697 13.2C29.0484 13.2 30.2277 13.9299 30.8545 15.0132C30.8864 15.0046 30.9199 15 30.9545 15H32.1667C32.3759 15 32.5455 15.1679 32.5455 15.375C32.5455 15.5821 32.3759 15.75 32.1667 15.75H31.1762C31.2784 16.0822 31.3333 16.4347 31.3333 16.8C31.3333 18.7882 29.7053 20.4 27.697 20.4C25.6887 20.4 24.0606 18.7882 24.0606 16.8C24.0606 16.5867 24.0793 16.3778 24.1153 16.1747C24.1025 15.5183 23.593 15 22.9792 15C22.413 15 21.9356 15.441 21.8548 16.0245C21.9102 16.2743 21.9394 16.5338 21.9394 16.8C21.9394 18.7882 20.3113 20.4 18.303 20.4C16.2947 20.4 14.6667 18.7882 14.6667 16.8C14.6667 16.4347 14.7216 16.0822 14.8238 15.75H13.8333C13.6241 15.75 13.4545 15.5821 13.4545 15.375C13.4545 15.1679 13.6241 15 13.8333 15H15.0455C15.0801 15 15.1136 15.0046 15.1455 15.0132C15.7723 13.9299 16.9516 13.2 18.303 13.2C19.72 13.2 20.9477 14.0024 21.5478 15.1732C21.8626 14.7059 22.3863 14.4 22.9792 14.4C23.5871 14.4 24.1223 14.7216 24.434 15.2091ZM18.303 19.8C19.9766 19.8 21.3333 18.4569 21.3333 16.8C21.3333 15.1431 19.9766 13.8 18.303 13.8C16.6294 13.8 15.2727 15.1431 15.2727 16.8C15.2727 18.4569 16.6294 19.8 18.303 19.8ZM27.697 19.8C29.3706 19.8 30.7273 18.4569 30.7273 16.8C30.7273 15.1431 29.3706 13.8 27.697 13.8C26.0234 13.8 24.6667 15.1431 24.6667 16.8C24.6667 18.4569 26.0234 19.8 27.697 19.8Z" fill="black"/>
</g>
<path fill-rule="evenodd" clip-rule="evenodd" d="M24.434 15.2091C25.0273 14.0188 26.2655 13.2 27.697 13.2C29.0484 13.2 30.2277 13.9299 30.8545 15.0132C30.8864 15.0046 30.9199 15 30.9545 15H32.1667C32.3759 15 32.5455 15.1679 32.5455 15.375C32.5455 15.5821 32.3759 15.75 32.1667 15.75H31.1762C31.2784 16.0822 31.3333 16.4347 31.3333 16.8C31.3333 18.7882 29.7053 20.4 27.697 20.4C25.6887 20.4 24.0606 18.7882 24.0606 16.8C24.0606 16.5867 24.0793 16.3778 24.1153 16.1747C24.1025 15.5183 23.593 15 22.9792 15C22.413 15 21.9356 15.441 21.8548 16.0245C21.9102 16.2743 21.9394 16.5338 21.9394 16.8C21.9394 18.7882 20.3113 20.4 18.303 20.4C16.2947 20.4 14.6667 18.7882 14.6667 16.8C14.6667 16.4347 14.7216 16.0822 14.8238 15.75H13.8333C13.6241 15.75 13.4545 15.5821 13.4545 15.375C13.4545 15.1679 13.6241 15 13.8333 15H15.0455C15.0801 15 15.1136 15.0046 15.1455 15.0132C15.7723 13.9299 16.9516 13.2 18.303 13.2C19.72 13.2 20.9477 14.0024 21.5478 15.1732C21.8626 14.7059 22.3863 14.4 22.9792 14.4C23.5871 14.4 24.1223 14.7216 24.434 15.2091ZM18.303 19.8C19.9766 19.8 21.3333 18.4569 21.3333 16.8C21.3333 15.1431 19.9766 13.8 18.303 13.8C16.6294 13.8 15.2727 15.1431 15.2727 16.8C15.2727 18.4569 16.6294 19.8 18.303 19.8ZM27.697 19.8C29.3706 19.8 30.7273 18.4569 30.7273 16.8C30.7273 15.1431 29.3706 13.8 27.697 13.8C26.0234 13.8 24.6667 15.1431 24.6667 16.8C24.6667 18.4569 26.0234 19.8 27.697 19.8Z" fill="#252C2F"/>
</g>
</g>
</g>
<defs>
<filter id="filter0_d" x="-1" y="0" width="48" height="50" filterUnits="userSpaceOnUse" color-interpolation-filters="sRGB">
<feFlood flood-opacity="0" result="BackgroundImageFix"/>
<feColorMatrix in="SourceAlpha" type="matrix" values="0 0 0 0 0 0 0 0 0 0 0 0 0 0 0 0 0 0 127 0"/>
<feOffset dy="4"/>
<feGaussianBlur stdDeviation="2"/>
<feColorMatrix type="matrix" values="0 0 0 0 0 0 0 0 0 0 0 0 0 0 0 0 0 0 0.25 0"/>
<feBlend mode="normal" in2="BackgroundImageFix" result="effect1_dropShadow"/>
<feBlend mode="normal" in="SourceGraphic" in2="effect1_dropShadow" result="shape"/>
</filter>
<filter id="filter1_d" x="9.45455" y="11.2" width="27.0909" height="15.2" filterUnits="userSpaceOnUse" color-interpolation-filters="sRGB">
<feFlood flood-opacity="0" result="BackgroundImageFix"/>
<feColorMatrix in="SourceAlpha" type="matrix" values="0 0 0 0 0 0 0 0 0 0 0 0 0 0 0 0 0 0 127 0"/>
<feOffset dy="2"/>
<feGaussianBlur stdDeviation="2"/>
<feColorMatrix type="matrix" values="0 0 0 0 0 0 0 0 0 0 0 0 0 0 0 0 0 0 0.1 0"/>
<feBlend mode="normal" in2="BackgroundImageFix" result="effect1_dropShadow"/>
<feBlend mode="normal" in="SourceGraphic" in2="effect1_dropShadow" result="shape"/>
</filter>
</defs>
</svg>
